<svg xmlns="http://www.w3.org/2000/svg" viewBox="0 0 500 500"><g id="freepik--background-simple--inject-194"><path d="M319.31,68.34c63.35,4.68,61.08,57.48,51.45,88.24-12,38.29-25.86,65.52-13.23,108.63,10.1,34.48,31.39,75.12-8.56,96.37-32.75,17.41-78.42,1.16-107.16-25.53-25.55-23.74-32-54.62-59-78.18-17.28-15.09-37.76-28.31-51.92-45.41-15.3-18.48-15.75-40.18-6.22-57.21,16.54-29.59,58.94-31.15,92.14-44.27C249,98.27,277.8,65.27,319.31,68.34Z" style="fill:#FF725E"></path><path d="M319.31,68.34c63.35,4.68,61.08,57.48,51.45,88.24-12,38.29-25.86,65.52-13.23,108.63,10.1,34.48,31.39,75.12-8.56,96.37-32.75,17.41-78.42,1.16-107.16-25.53-25.55-23.74-32-54.62-59-78.18-17.28-15.09-37.76-28.31-51.92-45.41-15.3-18.48-15.75-40.18-6.22-57.21,16.54-29.59,58.94-31.15,92.14-44.27C249,98.27,277.8,65.27,319.31,68.34Z" style="fill:#fff;opacity:0.9"></path></g></svg>